mtllib ball.mtl
usemtl ball
v 0.0000 0.5600 0.0000
v 0.0000 0.5600 0.0000
v 0.0000 0.5600 0.0000
v 0.0000 0.5600 0.0000
v 0.0000 0.5600 0.0000
v 0.0000 0.5600 0.0000
v 0.0000 0.5600 0.0000
v 0.0000 0.5600 0.0000
v 0.0000 0.5600 0.0000
v 0.0000 0.5600 0.0000
v 0.0000 0.5600 0.0000
v 0.0000 0.5600 0.0000
v 0.0000 0.5600 0.0000
v 0.0000 0.5600 0.0000
v 0.0000 0.5600 0.0000
v 0.0000 0.5600 0.0000
v 0.0000 0.5600 0.0000
v 0.0000 0.5600 0.0000
v 0.0000 0.5600 0.0000
v 0.0000 0.5600 0.0000
v 0.0000 0.5600 0.0000
v 0.0000 0.5600 0.0000
v 0.0000 0.5600 0.0000
v 0.0000 0.5600 0.0000
v 0.0725 0.5505 0.0000
v 0.0700 0.5505 0.0188
v 0.0628 0.5505 0.0362
v 0.0512 0.5505 0.0512
v 0.0362 0.5505 0.0628
v 0.0188 0.5505 0.0700
v 0.0000 0.5505 0.0725
v -0.0188 0.5505 0.0700
v -0.0362 0.5505 0.0628
v -0.0512 0.5505 0.0512
v -0.0628 0.5505 0.0362
v -0.0700 0.5505 0.0188
v -0.0725 0.5505 0.0000
v -0.0700 0.5505 -0.0188
v -0.0628 0.5505 -0.0362
v -0.0512 0.5505 -0.0512
v -0.0362 0.5505 -0.0628
v -0.0188 0.5505 -0.0700
v -0.0000 0.5505 -0.0725
v 0.0188 0.5505 -0.0700
v 0.0362 0.5505 -0.0628
v 0.0512 0.5505 -0.0512
v 0.0628 0.5505 -0.0362
v 0.0700 0.5505 -0.0188
v 0.1400 0.5225 0.0000
v 0.1352 0.5225 0.0362
v 0.1212 0.5225 0.0700
v 0.0990 0.5225 0.0990
v 0.0700 0.5225 0.1212
v 0.0362 0.5225 0.1352
v 0.0000 0.5225 0.1400
v -0.0362 0.5225 0.1352
v -0.0700 0.5225 0.1212
v -0.0990 0.5225 0.0990
v -0.1212 0.5225 0.0700
v -0.1352 0.5225 0.0362
v -0.1400 0.5225 0.0000
v -0.1352 0.5225 -0.0362
v -0.1212 0.5225 -0.0700
v -0.0990 0.5225 -0.0990
v -0.0700 0.5225 -0.1212
v -0.0362 0.5225 -0.1352
v -0.0000 0.5225 -0.1400
v 0.0362 0.5225 -0.1352
v 0.0700 0.5225 -0.1212
v 0.0990 0.5225 -0.0990
v 0.1212 0.5225 -0.0700
v 0.1352 0.5225 -0.0362
v 0.1980 0.4780 0.0000
v 0.1912 0.4780 0.0512
v 0.1715 0.4780 0.0990
v 0.1400 0.4780 0.1400
v 0.0990 0.4780 0.1715
v 0.0512 0.4780 0.1912
v 0.0000 0.4780 0.1980
v -0.0512 0.4780 0.1912
v -0.0990 0.4780 0.1715
v -0.1400 0.4780 0.1400
v -0.1715 0.4780 0.0990
v -0.1912 0.4780 0.0512
v -0.1980 0.4780 0.0000
v -0.1912 0.4780 -0.0512
v -0.1715 0.4780 -0.0990
v -0.1400 0.4780 -0.1400
v -0.0990 0.4780 -0.1715
v -0.0512 0.4780 -0.1912
v -0.0000 0.4780 -0.1980
v 0.0512 0.4780 -0.1912
v 0.0990 0.4780 -0.1715
v 0.1400 0.4780 -0.1400
v 0.1715 0.4780 -0.0990
v 0.1912 0.4780 -0.0512
v 0.2425 0.4200 0.0000
v 0.2342 0.4200 0.0628
v 0.2100 0.4200 0.1212
v 0.1715 0.4200 0.1715
v 0.1212 0.4200 0.2100
v 0.0628 0.4200 0.2342
v 0.0000 0.4200 0.2425
v -0.0628 0.4200 0.2342
v -0.1212 0.4200 0.2100
v -0.1715 0.4200 0.1715
v -0.2100 0.4200 0.1212
v -0.2342 0.4200 0.0628
v -0.2425 0.4200 0.0000
v -0.2342 0.4200 -0.0628
v -0.2100 0.4200 -0.1212
v -0.1715 0.4200 -0.1715
v -0.1212 0.4200 -0.2100
v -0.0628 0.4200 -0.2342
v -0.0000 0.4200 -0.2425
v 0.0628 0.4200 -0.2342
v 0.1212 0.4200 -0.2100
v 0.1715 0.4200 -0.1715
v 0.2100 0.4200 -0.1212
v 0.2342 0.4200 -0.0628
v 0.2705 0.3525 0.0000
v 0.2612 0.3525 0.0700
v 0.2342 0.3525 0.1352
v 0.1912 0.3525 0.1912
v 0.1352 0.3525 0.2342
v 0.0700 0.3525 0.2612
v 0.0000 0.3525 0.2705
v -0.0700 0.3525 0.2612
v -0.1352 0.3525 0.2342
v -0.1912 0.3525 0.1912
v -0.2342 0.3525 0.1352
v -0.2612 0.3525 0.0700
v -0.2705 0.3525 0.0000
v -0.2612 0.3525 -0.0700
v -0.2342 0.3525 -0.1352
v -0.1912 0.3525 -0.1912
v -0.1352 0.3525 -0.2342
v -0.0700 0.3525 -0.2612
v -0.0000 0.3525 -0.2705
v 0.0700 0.3525 -0.2612
v 0.1352 0.3525 -0.2342
v 0.1912 0.3525 -0.1912
v 0.2342 0.3525 -0.1352
v 0.2612 0.3525 -0.0700
v 0.2800 0.2800 0.0000
v 0.2705 0.2800 0.0725
v 0.2425 0.2800 0.1400
v 0.1980 0.2800 0.1980
v 0.1400 0.2800 0.2425
v 0.0725 0.2800 0.2705
v 0.0000 0.2800 0.2800
v -0.0725 0.2800 0.2705
v -0.1400 0.2800 0.2425
v -0.1980 0.2800 0.1980
v -0.2425 0.2800 0.1400
v -0.2705 0.2800 0.0725
v -0.2800 0.2800 0.0000
v -0.2705 0.2800 -0.0725
v -0.2425 0.2800 -0.1400
v -0.1980 0.2800 -0.1980
v -0.1400 0.2800 -0.2425
v -0.0725 0.2800 -0.2705
v -0.0000 0.2800 -0.2800
v 0.0725 0.2800 -0.2705
v 0.1400 0.2800 -0.2425
v 0.1980 0.2800 -0.1980
v 0.2425 0.2800 -0.1400
v 0.2705 0.2800 -0.0725
v 0.2705 0.2075 0.0000
v 0.2612 0.2075 0.0700
v 0.2342 0.2075 0.1352
v 0.1912 0.2075 0.1912
v 0.1352 0.2075 0.2342
v 0.0700 0.2075 0.2612
v 0.0000 0.2075 0.2705
v -0.0700 0.2075 0.2612
v -0.1352 0.2075 0.2342
v -0.1912 0.2075 0.1912
v -0.2342 0.2075 0.1352
v -0.2612 0.2075 0.0700
v -0.2705 0.2075 0.0000
v -0.2612 0.2075 -0.0700
v -0.2342 0.2075 -0.1352
v -0.1912 0.2075 -0.1912
v -0.1352 0.2075 -0.2342
v -0.0700 0.2075 -0.2612
v -0.0000 0.2075 -0.2705
v 0.0700 0.2075 -0.2612
v 0.1352 0.2075 -0.2342
v 0.1912 0.2075 -0.1912
v 0.2342 0.2075 -0.1352
v 0.2612 0.2075 -0.0700
v 0.2425 0.1400 0.0000
v 0.2342 0.1400 0.0628
v 0.2100 0.1400 0.1212
v 0.1715 0.1400 0.1715
v 0.1212 0.1400 0.2100
v 0.0628 0.1400 0.2342
v 0.0000 0.1400 0.2425
v -0.0628 0.1400 0.2342
v -0.1212 0.1400 0.2100
v -0.1715 0.1400 0.1715
v -0.2100 0.1400 0.1212
v -0.2342 0.1400 0.0628
v -0.2425 0.1400 0.0000
v -0.2342 0.1400 -0.0628
v -0.2100 0.1400 -0.1212
v -0.1715 0.1400 -0.1715
v -0.1212 0.1400 -0.2100
v -0.0628 0.1400 -0.2342
v -0.0000 0.1400 -0.2425
v 0.0628 0.1400 -0.2342
v 0.1212 0.1400 -0.2100
v 0.1715 0.1400 -0.1715
v 0.2100 0.1400 -0.1212
v 0.2342 0.1400 -0.0628
v 0.1980 0.0820 0.0000
v 0.1912 0.0820 0.0512
v 0.1715 0.0820 0.0990
v 0.1400 0.0820 0.1400
v 0.0990 0.0820 0.1715
v 0.0512 0.0820 0.1912
v 0.0000 0.0820 0.1980
v -0.0512 0.0820 0.1912
v -0.0990 0.0820 0.1715
v -0.1400 0.0820 0.1400
v -0.1715 0.0820 0.0990
v -0.1912 0.0820 0.0512
v -0.1980 0.0820 0.0000
v -0.1912 0.0820 -0.0512
v -0.1715 0.0820 -0.0990
v -0.1400 0.0820 -0.1400
v -0.0990 0.0820 -0.1715
v -0.0512 0.0820 -0.1912
v -0.0000 0.0820 -0.1980
v 0.0512 0.0820 -0.1912
v 0.0990 0.0820 -0.1715
v 0.1400 0.0820 -0.1400
v 0.1715 0.0820 -0.0990
v 0.1912 0.0820 -0.0512
v 0.1400 0.0375 0.0000
v 0.1352 0.0375 0.0362
v 0.1212 0.0375 0.0700
v 0.0990 0.0375 0.0990
v 0.0700 0.0375 0.1212
v 0.0362 0.0375 0.1352
v 0.0000 0.0375 0.1400
v -0.0362 0.0375 0.1352
v -0.0700 0.0375 0.1212
v -0.0990 0.0375 0.0990
v -0.1212 0.0375 0.0700
v -0.1352 0.0375 0.0362
v -0.1400 0.0375 0.0000
v -0.1352 0.0375 -0.0362
v -0.1212 0.0375 -0.0700
v -0.0990 0.0375 -0.0990
v -0.0700 0.0375 -0.1212
v -0.0362 0.0375 -0.1352
v -0.0000 0.0375 -0.1400
v 0.0362 0.0375 -0.1352
v 0.0700 0.0375 -0.1212
v 0.0990 0.0375 -0.0990
v 0.1212 0.0375 -0.0700
v 0.1352 0.0375 -0.0362
v 0.0725 0.0095 0.0000
v 0.0700 0.0095 0.0188
v 0.0628 0.0095 0.0362
v 0.0512 0.0095 0.0512
v 0.0362 0.0095 0.0628
v 0.0188 0.0095 0.0700
v 0.0000 0.0095 0.0725
v -0.0188 0.0095 0.0700
v -0.0362 0.0095 0.0628
v -0.0512 0.0095 0.0512
v -0.0628 0.0095 0.0362
v -0.0700 0.0095 0.0188
v -0.0725 0.0095 0.0000
v -0.0700 0.0095 -0.0188
v -0.0628 0.0095 -0.0362
v -0.0512 0.0095 -0.0512
v -0.0362 0.0095 -0.0628
v -0.0188 0.0095 -0.0700
v -0.0000 0.0095 -0.0725
v 0.0188 0.0095 -0.0700
v 0.0362 0.0095 -0.0628
v 0.0512 0.0095 -0.0512
v 0.0628 0.0095 -0.0362
v 0.0700 0.0095 -0.0188
v 0.0000 0.0000 0.0000
v 0.0000 0.0000 0.0000
v 0.0000 0.0000 0.0000
v 0.0000 0.0000 0.0000
v 0.0000 0.0000 0.0000
v 0.0000 0.0000 0.0000
v 0.0000 0.0000 0.0000
v -0.0000 0.0000 0.0000
v -0.0000 0.0000 0.0000
v -0.0000 0.0000 0.0000
v -0.0000 0.0000 0.0000
v -0.0000 0.0000 0.0000
v -0.0000 0.0000 0.0000
v -0.0000 0.0000 -0.0000
v -0.0000 0.0000 -0.0000
v -0.0000 0.0000 -0.0000
v -0.0000 0.0000 -0.0000
v -0.0000 0.0000 -0.0000
v -0.0000 0.0000 -0.0000
v 0.0000 0.0000 -0.0000
v 0.0000 0.0000 -0.0000
v 0.0000 0.0000 -0.0000
v 0.0000 0.0000 -0.0000
v 0.0000 0.0000 -0.0000
f 1 2 26 25
f 2 3 27 26
f 3 4 28 27
f 4 5 29 28
f 5 6 30 29
f 6 7 31 30
f 7 8 32 31
f 8 9 33 32
f 9 10 34 33
f 10 11 35 34
f 11 12 36 35
f 12 13 37 36
f 13 14 38 37
f 14 15 39 38
f 15 16 40 39
f 16 17 41 40
f 17 18 42 41
f 18 19 43 42
f 19 20 44 43
f 20 21 45 44
f 21 22 46 45
f 22 23 47 46
f 23 24 48 47
f 24 1 25 48
f 25 26 50 49
f 26 27 51 50
f 27 28 52 51
f 28 29 53 52
f 29 30 54 53
f 30 31 55 54
f 31 32 56 55
f 32 33 57 56
f 33 34 58 57
f 34 35 59 58
f 35 36 60 59
f 36 37 61 60
f 37 38 62 61
f 38 39 63 62
f 39 40 64 63
f 40 41 65 64
f 41 42 66 65
f 42 43 67 66
f 43 44 68 67
f 44 45 69 68
f 45 46 70 69
f 46 47 71 70
f 47 48 72 71
f 48 25 49 72
f 49 50 74 73
f 50 51 75 74
f 51 52 76 75
f 52 53 77 76
f 53 54 78 77
f 54 55 79 78
f 55 56 80 79
f 56 57 81 80
f 57 58 82 81
f 58 59 83 82
f 59 60 84 83
f 60 61 85 84
f 61 62 86 85
f 62 63 87 86
f 63 64 88 87
f 64 65 89 88
f 65 66 90 89
f 66 67 91 90
f 67 68 92 91
f 68 69 93 92
f 69 70 94 93
f 70 71 95 94
f 71 72 96 95
f 72 49 73 96
f 73 74 98 97
f 74 75 99 98
f 75 76 100 99
f 76 77 101 100
f 77 78 102 101
f 78 79 103 102
f 79 80 104 103
f 80 81 105 104
f 81 82 106 105
f 82 83 107 106
f 83 84 108 107
f 84 85 109 108
f 85 86 110 109
f 86 87 111 110
f 87 88 112 111
f 88 89 113 112
f 89 90 114 113
f 90 91 115 114
f 91 92 116 115
f 92 93 117 116
f 93 94 118 117
f 94 95 119 118
f 95 96 120 119
f 96 73 97 120
f 97 98 122 121
f 98 99 123 122
f 99 100 124 123
f 100 101 125 124
f 101 102 126 125
f 102 103 127 126
f 103 104 128 127
f 104 105 129 128
f 105 106 130 129
f 106 107 131 130
f 107 108 132 131
f 108 109 133 132
f 109 110 134 133
f 110 111 135 134
f 111 112 136 135
f 112 113 137 136
f 113 114 138 137
f 114 115 139 138
f 115 116 140 139
f 116 117 141 140
f 117 118 142 141
f 118 119 143 142
f 119 120 144 143
f 120 97 121 144
f 121 122 146 145
f 122 123 147 146
f 123 124 148 147
f 124 125 149 148
f 125 126 150 149
f 126 127 151 150
f 127 128 152 151
f 128 129 153 152
f 129 130 154 153
f 130 131 155 154
f 131 132 156 155
f 132 133 157 156
f 133 134 158 157
f 134 135 159 158
f 135 136 160 159
f 136 137 161 160
f 137 138 162 161
f 138 139 163 162
f 139 140 164 163
f 140 141 165 164
f 141 142 166 165
f 142 143 167 166
f 143 144 168 167
f 144 121 145 168
f 145 146 170 169
f 146 147 171 170
f 147 148 172 171
f 148 149 173 172
f 149 150 174 173
f 150 151 175 174
f 151 152 176 175
f 152 153 177 176
f 153 154 178 177
f 154 155 179 178
f 155 156 180 179
f 156 157 181 180
f 157 158 182 181
f 158 159 183 182
f 159 160 184 183
f 160 161 185 184
f 161 162 186 185
f 162 163 187 186
f 163 164 188 187
f 164 165 189 188
f 165 166 190 189
f 166 167 191 190
f 167 168 192 191
f 168 145 169 192
f 169 170 194 193
f 170 171 195 194
f 171 172 196 195
f 172 173 197 196
f 173 174 198 197
f 174 175 199 198
f 175 176 200 199
f 176 177 201 200
f 177 178 202 201
f 178 179 203 202
f 179 180 204 203
f 180 181 205 204
f 181 182 206 205
f 182 183 207 206
f 183 184 208 207
f 184 185 209 208
f 185 186 210 209
f 186 187 211 210
f 187 188 212 211
f 188 189 213 212
f 189 190 214 213
f 190 191 215 214
f 191 192 216 215
f 192 169 193 216
f 193 194 218 217
f 194 195 219 218
f 195 196 220 219
f 196 197 221 220
f 197 198 222 221
f 198 199 223 222
f 199 200 224 223
f 200 201 225 224
f 201 202 226 225
f 202 203 227 226
f 203 204 228 227
f 204 205 229 228
f 205 206 230 229
f 206 207 231 230
f 207 208 232 231
f 208 209 233 232
f 209 210 234 233
f 210 211 235 234
f 211 212 236 235
f 212 213 237 236
f 213 214 238 237
f 214 215 239 238
f 215 216 240 239
f 216 193 217 240
f 217 218 242 241
f 218 219 243 242
f 219 220 244 243
f 220 221 245 244
f 221 222 246 245
f 222 223 247 246
f 223 224 248 247
f 224 225 249 248
f 225 226 250 249
f 226 227 251 250
f 227 228 252 251
f 228 229 253 252
f 229 230 254 253
f 230 231 255 254
f 231 232 256 255
f 232 233 257 256
f 233 234 258 257
f 234 235 259 258
f 235 236 260 259
f 236 237 261 260
f 237 238 262 261
f 238 239 263 262
f 239 240 264 263
f 240 217 241 264
f 241 242 266 265
f 242 243 267 266
f 243 244 268 267
f 244 245 269 268
f 245 246 270 269
f 246 247 271 270
f 247 248 272 271
f 248 249 273 272
f 249 250 274 273
f 250 251 275 274
f 251 252 276 275
f 252 253 277 276
f 253 254 278 277
f 254 255 279 278
f 255 256 280 279
f 256 257 281 280
f 257 258 282 281
f 258 259 283 282
f 259 260 284 283
f 260 261 285 284
f 261 262 286 285
f 262 263 287 286
f 263 264 288 287
f 264 241 265 288
f 265 266 290 289
f 266 267 291 290
f 267 268 292 291
f 268 269 293 292
f 269 270 294 293
f 270 271 295 294
f 271 272 296 295
f 272 273 297 296
f 273 274 298 297
f 274 275 299 298
f 275 276 300 299
f 276 277 301 300
f 277 278 302 301
f 278 279 303 302
f 279 280 304 303
f 280 281 305 304
f 281 282 306 305
f 282 283 307 306
f 283 284 308 307
f 284 285 309 308
f 285 286 310 309
f 286 287 311 310
f 287 288 312 311
f 288 265 289 312
