mtllib player_away.mtl
usemtl kit
v 0.2800 0.7750 0.0000
v 0.2663 0.7750 0.0865
v 0.2265 0.7750 0.1646
v 0.1646 0.7750 0.2265
v 0.0865 0.7750 0.2663
v 0.0000 0.7750 0.2800
v -0.0865 0.7750 0.2663
v -0.1646 0.7750 0.2265
v -0.2265 0.7750 0.1646
v -0.2663 0.7750 0.0865
v -0.2800 0.7750 0.0000
v -0.2663 0.7750 -0.0865
v -0.2265 0.7750 -0.1646
v -0.1646 0.7750 -0.2265
v -0.0865 0.7750 -0.2663
v -0.0000 0.7750 -0.2800
v 0.0865 0.7750 -0.2663
v 0.1646 0.7750 -0.2265
v 0.2265 0.7750 -0.1646
v 0.2663 0.7750 -0.0865
v 0.2800 1.7250 0.0000
v 0.2663 1.7250 0.0865
v 0.2265 1.7250 0.1646
v 0.1646 1.7250 0.2265
v 0.0865 1.7250 0.2663
v 0.0000 1.7250 0.2800
v -0.0865 1.7250 0.2663
v -0.1646 1.7250 0.2265
v -0.2265 1.7250 0.1646
v -0.2663 1.7250 0.0865
v -0.2800 1.7250 0.0000
v -0.2663 1.7250 -0.0865
v -0.2265 1.7250 -0.1646
v -0.1646 1.7250 -0.2265
v -0.0865 1.7250 -0.2663
v -0.0000 1.7250 -0.2800
v 0.0865 1.7250 -0.2663
v 0.1646 1.7250 -0.2265
v 0.2265 1.7250 -0.1646
v 0.2663 1.7250 -0.0865
v 0.0000 2.1700 0.0000
v 0.0000 2.1700 0.0000
v 0.0000 2.1700 0.0000
v 0.0000 2.1700 0.0000
v 0.0000 2.1700 0.0000
v 0.0000 2.1700 0.0000
v 0.0000 2.1700 0.0000
v 0.0000 2.1700 0.0000
v 0.0000 2.1700 0.0000
v 0.0000 2.1700 0.0000
v 0.0000 2.1700 0.0000
v 0.0000 2.1700 0.0000
v 0.0000 2.1700 0.0000
v 0.0000 2.1700 0.0000
v 0.0000 2.1700 0.0000
v 0.0000 2.1700 0.0000
v 0.0842 2.1533 0.0000
v 0.0778 2.1533 0.0322
v 0.0595 2.1533 0.0595
v 0.0322 2.1533 0.0778
v 0.0000 2.1533 0.0842
v -0.0322 2.1533 0.0778
v -0.0595 2.1533 0.0595
v -0.0778 2.1533 0.0322
v -0.0842 2.1533 0.0000
v -0.0778 2.1533 -0.0322
v -0.0595 2.1533 -0.0595
v -0.0322 2.1533 -0.0778
v -0.0000 2.1533 -0.0842
v 0.0322 2.1533 -0.0778
v 0.0595 2.1533 -0.0595
v 0.0778 2.1533 -0.0322
v 0.1556 2.1056 0.0000
v 0.1437 2.1056 0.0595
v 0.1100 2.1056 0.1100
v 0.0595 2.1056 0.1437
v 0.0000 2.1056 0.1556
v -0.0595 2.1056 0.1437
v -0.1100 2.1056 0.1100
v -0.1437 2.1056 0.0595
v -0.1556 2.1056 0.0000
v -0.1437 2.1056 -0.0595
v -0.1100 2.1056 -0.1100
v -0.0595 2.1056 -0.1437
v -0.0000 2.1056 -0.1556
v 0.0595 2.1056 -0.1437
v 0.1100 2.1056 -0.1100
v 0.1437 2.1056 -0.0595
v 0.2033 2.0342 0.0000
v 0.1878 2.0342 0.0778
v 0.1437 2.0342 0.1437
v 0.0778 2.0342 0.1878
v 0.0000 2.0342 0.2033
v -0.0778 2.0342 0.1878
v -0.1437 2.0342 0.1437
v -0.1878 2.0342 0.0778
v -0.2033 2.0342 0.0000
v -0.1878 2.0342 -0.0778
v -0.1437 2.0342 -0.1437
v -0.0778 2.0342 -0.1878
v -0.0000 2.0342 -0.2033
v 0.0778 2.0342 -0.1878
v 0.1437 2.0342 -0.1437
v 0.1878 2.0342 -0.0778
v 0.2200 1.9500 0.0000
v 0.2033 1.9500 0.0842
v 0.1556 1.9500 0.1556
v 0.0842 1.9500 0.2033
v 0.0000 1.9500 0.2200
v -0.0842 1.9500 0.2033
v -0.1556 1.9500 0.1556
v -0.2033 1.9500 0.0842
v -0.2200 1.9500 0.0000
v -0.2033 1.9500 -0.0842
v -0.1556 1.9500 -0.1556
v -0.0842 1.9500 -0.2033
v -0.0000 1.9500 -0.2200
v 0.0842 1.9500 -0.2033
v 0.1556 1.9500 -0.1556
v 0.2033 1.9500 -0.0842
v 0.2033 1.8658 0.0000
v 0.1878 1.8658 0.0778
v 0.1437 1.8658 0.1437
v 0.0778 1.8658 0.1878
v 0.0000 1.8658 0.2033
v -0.0778 1.8658 0.1878
v -0.1437 1.8658 0.1437
v -0.1878 1.8658 0.0778
v -0.2033 1.8658 0.0000
v -0.1878 1.8658 -0.0778
v -0.1437 1.8658 -0.1437
v -0.0778 1.8658 -0.1878
v -0.0000 1.8658 -0.2033
v 0.0778 1.8658 -0.1878
v 0.1437 1.8658 -0.1437
v 0.1878 1.8658 -0.0778
v 0.1556 1.7944 0.0000
v 0.1437 1.7944 0.0595
v 0.1100 1.7944 0.1100
v 0.0595 1.7944 0.1437
v 0.0000 1.7944 0.1556
v -0.0595 1.7944 0.1437
v -0.1100 1.7944 0.1100
v -0.1437 1.7944 0.0595
v -0.1556 1.7944 0.0000
v -0.1437 1.7944 -0.0595
v -0.1100 1.7944 -0.1100
v -0.0595 1.7944 -0.1437
v -0.0000 1.7944 -0.1556
v 0.0595 1.7944 -0.1437
v 0.1100 1.7944 -0.1100
v 0.1437 1.7944 -0.0595
v 0.0842 1.7467 0.0000
v 0.0778 1.7467 0.0322
v 0.0595 1.7467 0.0595
v 0.0322 1.7467 0.0778
v 0.0000 1.7467 0.0842
v -0.0322 1.7467 0.0778
v -0.0595 1.7467 0.0595
v -0.0778 1.7467 0.0322
v -0.0842 1.7467 0.0000
v -0.0778 1.7467 -0.0322
v -0.0595 1.7467 -0.0595
v -0.0322 1.7467 -0.0778
v -0.0000 1.7467 -0.0842
v 0.0322 1.7467 -0.0778
v 0.0595 1.7467 -0.0595
v 0.0778 1.7467 -0.0322
v 0.0000 1.7300 0.0000
v 0.0000 1.7300 0.0000
v 0.0000 1.7300 0.0000
v 0.0000 1.7300 0.0000
v 0.0000 1.7300 0.0000
v -0.0000 1.7300 0.0000
v -0.0000 1.7300 0.0000
v -0.0000 1.7300 0.0000
v -0.0000 1.7300 0.0000
v -0.0000 1.7300 -0.0000
v -0.0000 1.7300 -0.0000
v -0.0000 1.7300 -0.0000
v -0.0000 1.7300 -0.0000
v 0.0000 1.7300 -0.0000
v 0.0000 1.7300 -0.0000
v 0.0000 1.7300 -0.0000
v -0.0400 0.0700 0.0000
v -0.0507 0.0700 0.0400
v -0.0800 0.0700 0.0693
v -0.1200 0.0700 0.0800
v -0.1600 0.0700 0.0693
v -0.1893 0.0700 0.0400
v -0.2000 0.0700 0.0000
v -0.1893 0.0700 -0.0400
v -0.1600 0.0700 -0.0693
v -0.1200 0.0700 -0.0800
v -0.0800 0.0700 -0.0693
v -0.0507 0.0700 -0.0400
v -0.0400 0.8900 0.0000
v -0.0507 0.8900 0.0400
v -0.0800 0.8900 0.0693
v -0.1200 0.8900 0.0800
v -0.1600 0.8900 0.0693
v -0.1893 0.8900 0.0400
v -0.2000 0.8900 0.0000
v -0.1893 0.8900 -0.0400
v -0.1600 0.8900 -0.0693
v -0.1200 0.8900 -0.0800
v -0.0800 0.8900 -0.0693
v -0.0507 0.8900 -0.0400
v 0.2000 0.0700 0.0000
v 0.1893 0.0700 0.0400
v 0.1600 0.0700 0.0693
v 0.1200 0.0700 0.0800
v 0.0800 0.0700 0.0693
v 0.0507 0.0700 0.0400
v 0.0400 0.0700 0.0000
v 0.0507 0.0700 -0.0400
v 0.0800 0.0700 -0.0693
v 0.1200 0.0700 -0.0800
v 0.1600 0.0700 -0.0693
v 0.1893 0.0700 -0.0400
v 0.2000 0.8900 0.0000
v 0.1893 0.8900 0.0400
v 0.1600 0.8900 0.0693
v 0.1200 0.8900 0.0800
v 0.0800 0.8900 0.0693
v 0.0507 0.8900 0.0400
v 0.0400 0.8900 0.0000
v 0.0507 0.8900 -0.0400
v 0.0800 0.8900 -0.0693
v 0.1200 0.8900 -0.0800
v 0.1600 0.8900 -0.0693
v 0.1893 0.8900 -0.0400
v -0.3000 0.8200 0.0000
v -0.3080 0.8200 0.0300
v -0.3300 0.8200 0.0520
v -0.3600 0.8200 0.0600
v -0.3900 0.8200 0.0520
v -0.4120 0.8200 0.0300
v -0.4200 0.8200 0.0000
v -0.4120 0.8200 -0.0300
v -0.3900 0.8200 -0.0520
v -0.3600 0.8200 -0.0600
v -0.3300 0.8200 -0.0520
v -0.3080 0.8200 -0.0300
v -0.3000 1.5400 0.0000
v -0.3080 1.5400 0.0300
v -0.3300 1.5400 0.0520
v -0.3600 1.5400 0.0600
v -0.3900 1.5400 0.0520
v -0.4120 1.5400 0.0300
v -0.4200 1.5400 0.0000
v -0.4120 1.5400 -0.0300
v -0.3900 1.5400 -0.0520
v -0.3600 1.5400 -0.0600
v -0.3300 1.5400 -0.0520
v -0.3080 1.5400 -0.0300
v 0.4200 0.8200 0.0000
v 0.4120 0.8200 0.0300
v 0.3900 0.8200 0.0520
v 0.3600 0.8200 0.0600
v 0.3300 0.8200 0.0520
v 0.3080 0.8200 0.0300
v 0.3000 0.8200 0.0000
v 0.3080 0.8200 -0.0300
v 0.3300 0.8200 -0.0520
v 0.3600 0.8200 -0.0600
v 0.3900 0.8200 -0.0520
v 0.4120 0.8200 -0.0300
v 0.4200 1.5400 0.0000
v 0.4120 1.5400 0.0300
v 0.3900 1.5400 0.0520
v 0.3600 1.5400 0.0600
v 0.3300 1.5400 0.0520
v 0.3080 1.5400 0.0300
v 0.3000 1.5400 0.0000
v 0.3080 1.5400 -0.0300
v 0.3300 1.5400 -0.0520
v 0.3600 1.5400 -0.0600
v 0.3900 1.5400 -0.0520
v 0.4120 1.5400 -0.0300
f 1 2 22 21
f 2 3 23 22
f 3 4 24 23
f 4 5 25 24
f 5 6 26 25
f 6 7 27 26
f 7 8 28 27
f 8 9 29 28
f 9 10 30 29
f 10 11 31 30
f 11 12 32 31
f 12 13 33 32
f 13 14 34 33
f 14 15 35 34
f 15 16 36 35
f 16 17 37 36
f 17 18 38 37
f 18 19 39 38
f 19 20 40 39
f 20 1 21 40
f 1 2 3 4 5 6 7 8 9 10 11 12 13 14 15 16 17 18 19 20
f 40 39 38 37 36 35 34 33 32 31 30 29 28 27 26 25 24 23 22 21
f 41 42 58 57
f 42 43 59 58
f 43 44 60 59
f 44 45 61 60
f 45 46 62 61
f 46 47 63 62
f 47 48 64 63
f 48 49 65 64
f 49 50 66 65
f 50 51 67 66
f 51 52 68 67
f 52 53 69 68
f 53 54 70 69
f 54 55 71 70
f 55 56 72 71
f 56 41 57 72
f 57 58 74 73
f 58 59 75 74
f 59 60 76 75
f 60 61 77 76
f 61 62 78 77
f 62 63 79 78
f 63 64 80 79
f 64 65 81 80
f 65 66 82 81
f 66 67 83 82
f 67 68 84 83
f 68 69 85 84
f 69 70 86 85
f 70 71 87 86
f 71 72 88 87
f 72 57 73 88
f 73 74 90 89
f 74 75 91 90
f 75 76 92 91
f 76 77 93 92
f 77 78 94 93
f 78 79 95 94
f 79 80 96 95
f 80 81 97 96
f 81 82 98 97
f 82 83 99 98
f 83 84 100 99
f 84 85 101 100
f 85 86 102 101
f 86 87 103 102
f 87 88 104 103
f 88 73 89 104
f 89 90 106 105
f 90 91 107 106
f 91 92 108 107
f 92 93 109 108
f 93 94 110 109
f 94 95 111 110
f 95 96 112 111
f 96 97 113 112
f 97 98 114 113
f 98 99 115 114
f 99 100 116 115
f 100 101 117 116
f 101 102 118 117
f 102 103 119 118
f 103 104 120 119
f 104 89 105 120
f 105 106 122 121
f 106 107 123 122
f 107 108 124 123
f 108 109 125 124
f 109 110 126 125
f 110 111 127 126
f 111 112 128 127
f 112 113 129 128
f 113 114 130 129
f 114 115 131 130
f 115 116 132 131
f 116 117 133 132
f 117 118 134 133
f 118 119 135 134
f 119 120 136 135
f 120 105 121 136
f 121 122 138 137
f 122 123 139 138
f 123 124 140 139
f 124 125 141 140
f 125 126 142 141
f 126 127 143 142
f 127 128 144 143
f 128 129 145 144
f 129 130 146 145
f 130 131 147 146
f 131 132 148 147
f 132 133 149 148
f 133 134 150 149
f 134 135 151 150
f 135 136 152 151
f 136 121 137 152
f 137 138 154 153
f 138 139 155 154
f 139 140 156 155
f 140 141 157 156
f 141 142 158 157
f 142 143 159 158
f 143 144 160 159
f 144 145 161 160
f 145 146 162 161
f 146 147 163 162
f 147 148 164 163
f 148 149 165 164
f 149 150 166 165
f 150 151 167 166
f 151 152 168 167
f 152 137 153 168
f 153 154 170 169
f 154 155 171 170
f 155 156 172 171
f 156 157 173 172
f 157 158 174 173
f 158 159 175 174
f 159 160 176 175
f 160 161 177 176
f 161 162 178 177
f 162 163 179 178
f 163 164 180 179
f 164 165 181 180
f 165 166 182 181
f 166 167 183 182
f 167 168 184 183
f 168 153 169 184
f 185 186 198 197
f 186 187 199 198
f 187 188 200 199
f 188 189 201 200
f 189 190 202 201
f 190 191 203 202
f 191 192 204 203
f 192 193 205 204
f 193 194 206 205
f 194 195 207 206
f 195 196 208 207
f 196 185 197 208
f 185 186 187 188 189 190 191 192 193 194 195 196
f 208 207 206 205 204 203 202 201 200 199 198 197
f 209 210 222 221
f 210 211 223 222
f 211 212 224 223
f 212 213 225 224
f 213 214 226 225
f 214 215 227 226
f 215 216 228 227
f 216 217 229 228
f 217 218 230 229
f 218 219 231 230
f 219 220 232 231
f 220 209 221 232
f 209 210 211 212 213 214 215 216 217 218 219 220
f 232 231 230 229 228 227 226 225 224 223 222 221
f 233 234 246 245
f 234 235 247 246
f 235 236 248 247
f 236 237 249 248
f 237 238 250 249
f 238 239 251 250
f 239 240 252 251
f 240 241 253 252
f 241 242 254 253
f 242 243 255 254
f 243 244 256 255
f 244 233 245 256
f 233 234 235 236 237 238 239 240 241 242 243 244
f 256 255 254 253 252 251 250 249 248 247 246 245
f 257 258 270 269
f 258 259 271 270
f 259 260 272 271
f 260 261 273 272
f 261 262 274 273
f 262 263 275 274
f 263 264 276 275
f 264 265 277 276
f 265 266 278 277
f 266 267 279 278
f 267 268 280 279
f 268 257 269 280
f 257 258 259 260 261 262 263 264 265 266 267 268
f 280 279 278 277 276 275 274 273 272 271 270 269
